<svg xmlns="http://www.w3.org/2000/svg" viewBox="0 0 266.46 150.24"><defs><style>.cls-1{fill:#00a29a;}.cls-2{font-size:9.73px;fill:#6eb8b2;font-family:NotoSans, Noto Sans;}.cls-3{letter-spacing:-0.01em;}</style></defs><g id="Layer_2" data-name="Layer 2"><path class="cls-1" d="M69.05,93.58H65.78L51.55,53.81V93.58H47.09V39.51h3.54l14,39.07V39.51h4.46Z"/><path class="cls-1" d="M109.93,48l-7.19,45.57H98.18v-.14l9.5-54.07h4.67l9.43,54.21h-4.7Z"/><path class="cls-1" d="M170.21,68.25A3.77,3.77,0,0,1,169.13,71a3.65,3.65,0,0,1-2.74,1.09H153.83V93.58H149.1V39.51h17.29a3.68,3.68,0,0,1,3.82,3.83Zm-4.74-.41V43.76H153.83V67.84Z"/><path class="cls-1" d="M219.39,89.74a3.84,3.84,0,0,1-1,2.77,3.62,3.62,0,0,1-2.71,1.07H202.23a3.67,3.67,0,0,1-3.82-3.84V76h4.74v13.3h11.51V76.44L200,58.41a6.32,6.32,0,0,1-1.54-4.12V43.34a3.67,3.67,0,0,1,3.82-3.83h13.41a3.62,3.62,0,0,1,2.71,1.07,3.81,3.81,0,0,1,1,2.76V55.92h-4.73V43.76H203.15v11.4l14.77,18a6.24,6.24,0,0,1,1.47,4Z"/><text class="cls-2" transform="translate(32.07 117.41)">N<tspan class="cls-3" x="7.39" y="0">e</tspan><tspan x="12.78" y="0">xt-enterprised Advanced Platform Service</tspan></text></g></svg>