<svg xmlns="http://www.w3.org/2000/svg" xml:space="preserve" width="376.88266" height="113.38587" viewBox="0 0 376.88266 113.38587"><defs><clipPath id="a" clipPathUnits="userSpaceOnUse"><path d="M0 85.039h282.662V0H0Z"/></clipPath></defs><g clip-path="url(#a)" transform="matrix(1.33333 0 0 -1.33333 0 113.386)"><path d="M0 0c-6.798 0-12.328 5.528-12.328 12.326v59.543c0 6.794 5.53 12.322 12.328 12.322h59.535c6.798 0 12.328-5.528 12.328-12.322V12.326C71.863 5.528 66.333 0 59.535 0Z" style="fill:#fff;fill-opacity:1;fill-rule:nonzero;stroke:none" transform="translate(12.75 .427)"/><path d="M0 0c6.564 0 11.906-5.342 11.906-11.906v-59.527c0-6.565-5.342-11.906-11.906-11.906h-59.529c-6.564 0-11.904 5.341-11.904 11.906v59.527C-71.433-5.342-66.093 0-59.529 0zm0 .85h-59.529c-7.044 0-12.756-5.71-12.756-12.756v-59.527c0-7.044 5.712-12.756 12.756-12.756H0c7.044 0 12.756 5.712 12.756 12.756v59.527C12.756-4.86 7.044.85 0 .85" style="fill:#8c8c8c;fill-opacity:1;fill-rule:nonzero;stroke:none" transform="translate(72.286 84.19)"/><path d="M0 0v-34.984c0-3.59 2.918-6.54 6.514-6.54 3.598 0 6.522 2.95 6.522 6.54V.292c0 11.588-6.138 17.712-17.758 17.712h-10.514c-3.59 0-6.513-2.924-6.513-6.524 0-3.596 2.923-6.54 6.513-6.54h10.2C-2.586 4.94 0 3.306 0 0" style="fill:#952687;fill-opacity:1;fill-rule:nonzero;stroke:none" transform="translate(35.994 52.58)"/><path d="M0 0h-10.478C-13.984 0-17-.566-19.484-1.654c3.514-2.75 5.678-6.874 6.348-12.288a5.317 5.317 0 0 0 2.946.878H0a6.547 6.547 0 0 1 6.548 6.54C6.548-2.922 3.628 0 0 0" style="fill:#f0861b;fill-opacity:1;fill-rule:nonzero;stroke:none" transform="translate(64.25 70.584)"/><path d="M0 0c0-3.014 2.116-4.682 5.132-4.682 3.014 0 5.132 1.668 5.132 4.682v50.163c0 3.016-2.118 4.682-5.132 4.682C2.116 54.845 0 53.179 0 50.163Zm-26.621 9.302c5.453 0 13.023.576 17.705 1.41 2.438.45 4.17 2.246 3.656 4.94-.514 2.63-2.502 3.336-4.94 3.014-4.49-.64-9.878-1.218-15.33-1.218h-2.95c-.898 0-1.092.256-1.092 1.155v8.852h14.946c2.502 0 4.362 1.348 4.362 4.042 0 2.629-1.86 3.976-4.362 3.976h-14.946v7.314c0 .898.194 1.09 1.092 1.09h14.24c2.502 0 4.298 1.412 4.298 4.042 0 2.694-1.796 4.104-4.298 4.104h-18.989c-4.233 0-6.35-2.116-6.35-6.286V15.588c0-4.17 2.117-6.286 6.35-6.286z" style="fill:#8c8c8c;fill-opacity:1;fill-rule:nonzero;stroke:none" transform="translate(150.133 15.738)"/><path d="M0 0h-9.942v9.044c0 4.17-2.246 6.352-6.416 6.352h-17.446c-4.171 0-6.416-2.182-6.416-6.352v-28.288c0-4.17 2.245-6.286 6.416-6.286h17.446c4.17 0 6.416 2.116 6.416 6.286v10.712H0v-27.903c0-3.015 2.116-4.683 5.132-4.683 3.014 0 5.132 1.668 5.132 4.683v50.164c0 3.013-2.118 4.682-5.132 4.682C2.116 18.411 0 16.742 0 13.729Zm-30.212 5.838c0 .898.191 1.09 1.09 1.09h8.274c.898 0 1.092-.192 1.092-1.09v-21.81c0-.898-.194-1.09-1.092-1.09h-8.274c-.899 0-1.09.192-1.09 1.09z" style="fill:#8c8c8c;fill-opacity:1;fill-rule:nonzero;stroke:none" transform="translate(211.907 52.173)"/><path d="M0 0c0-3.014 2.116-4.682 5.132-4.682 3.014 0 5.132 1.668 5.132 4.682v50.163c0 3.016-2.118 4.682-5.132 4.682C2.116 54.845 0 53.179 0 50.163Zm-9.108 13.343c2.436.449 4.232 2.437 3.72 5.26-.45 2.757-2.566 3.656-5.004 3.271-4.554-.77-10.264-1.153-15.78-1.153h-1.41c-.898 0-1.092.191-1.092 1.09v25.274c0 2.822-1.86 4.938-5.13 4.938-3.272 0-5.133-2.116-5.133-4.938V18.282c0-4.234 2.117-6.414 6.479-6.414h5.388c6.608 0 12.188.512 17.962 1.475" style="fill:#8c8c8c;fill-opacity:1;fill-rule:nonzero;stroke:none" transform="translate(272.397 15.738)"/></g></svg>